<svg
  xmlns="http://www.w3.org/2000/svg"
  xmlns:xlink="http://www.w3.org/1999/xlink"
  viewBox="0 0 100 100"
  
  fill="#ccd"

>
  <style>
    .info {
      font: bold 55px serif;
    }
  </style>
  <g
    transform-origin="50 50"
  >
    <path
      d="
      M 92 87
      v 9
      a 3 3 0 0 1 -3 3
      h -69
      a 12 12 0 0 1 -12 -12
      v -74
      a 12 12 0 0 1 12 -12
      h 69
      a 3 3 0 0 1 3 3
      v 73
      a 3 3 0 0 1 -3 3
      h -68
      a 7 7 0 0 0 0 14
      h 65
      v -7
      z
      M 50 12

      a 30 30 0 1 0 0.1 0
      "
    />
    <text text-anchor="middle" x="50" y="60" class="info">i</text>
  </g>
</svg>